<svg xmlns="http://www.w3.org/2000/svg" viewBox="0 0 309 46"><path d="M63 35.266l.2-23.309h5.2l-.2 8.889 9.41.2.2-9.087h5.21l-.2 23.506h-5.21V25.192H68.2v10.074H63zm23.02-8.3a9.469 9.469 0 00.6 3.556 6.69 6.69 0 001.8 2.765 6.789 6.789 0 002.8 1.778 10.653 10.653 0 003.61.592 9.812 9.812 0 003.6-.592 8.4 8.4 0 002.8-1.778 8.278 8.278 0 001.8-2.765 11.061 11.061 0 00.6-3.556 11.373 11.373 0 00-.6-3.753 6.688 6.688 0 00-1.8-2.765 6.789 6.789 0 00-2.8-1.778 11.258 11.258 0 00-7.21 0 8.4 8.4 0 00-2.8 1.778 8.274 8.274 0 00-1.8 2.765 11.373 11.373 0 00-.6 3.753zm4.8 0a8.269 8.269 0 011-3.951 3.665 3.665 0 013.21-1.58 3.029 3.029 0 012.2.79 4.517 4.517 0 011.4 1.974 6.21 6.21 0 01.4 2.766 9.887 9.887 0 01-.4 2.567 5.044 5.044 0 01-1.4 1.976 3.212 3.212 0 01-2.4.79 3.664 3.664 0 01-3.21-1.581 6.57 6.57 0 01-.8-3.753zm15.62 8.493l.2-16.987h4.4v2.37a5.861 5.861 0 012.4-1.975 8.467 8.467 0 013.2-.79 4.663 4.663 0 012.81.79 3.985 3.985 0 011.8 2.173 6.452 6.452 0 015.2-2.765 7.7 7.7 0 013.2.593 4.266 4.266 0 012.21 1.975 5.993 5.993 0 01.8 3.358v11.26h-4.61v-9.677a6.855 6.855 0 00-.6-3.161 2.744 2.744 0 00-2.4-.987 2.426 2.426 0 00-2.4 1.186 6.849 6.849 0 00-.6 3.16v9.481h-4.61v-9.482a8.039 8.039 0 00-.2-2.37 3.168 3.168 0 00-.8-1.382 2.673 2.673 0 00-2-.593 3.751 3.751 0 00-2.2.79c-.8.593-1 1.581-1 2.963v9.877l-4.8.2zm45.03-6.913h-12.21a4.6 4.6 0 001 3.161 4.037 4.037 0 004.61.79 8.665 8.665 0 001.4-.79 1.345 1.345 0 00.6-.988h4a7.833 7.833 0 01-3 4.346 8.276 8.276 0 01-5.01 1.383 8.856 8.856 0 01-4.6-1.186 9.19 9.19 0 01-3-3.161 11.6 11.6 0 01-1-4.543 9.09 9.09 0 011.2-4.544 9.188 9.188 0 013-3.16 8.645 8.645 0 014.4-1.185 6.94 6.94 0 013.61.79 6.494 6.494 0 012.6 1.976 10.427 10.427 0 011.6 2.963 11.057 11.057 0 01.6 3.555c.4 0 .4.2.2.593zm-12.21-3.161h7.61a5.094 5.094 0 00-1.2-2.765 3.424 3.424 0 00-2.6-.79 4.086 4.086 0 00-2.21.593 2.668 2.668 0 00-1.2 1.383c-.2.593-.2 1.185-.4 1.58zm13.81 4.938h4.41a2.535 2.535 0 001 2.173 5.038 5.038 0 002.6.79 4.075 4.075 0 002.2-.592 2.711 2.711 0 001-1.581 1.448 1.448 0 00-1.2-1.382 18.769 18.769 0 00-4.2-1.185 10.663 10.663 0 01-4.01-1.58 3.106 3.106 0 01-1.4-2.963 4.411 4.411 0 012.21-4.148 10.9 10.9 0 015.4-1.185 9.342 9.342 0 015 1.185 5.662 5.662 0 012.41 4.345h-4.41a2.42 2.42 0 00-1-1.974 5.979 5.979 0 00-2-.4c-1.8 0-2.6.593-2.6 1.581a1.5 1.5 0 00.4.988 3.272 3.272 0 001.2.592 29.505 29.505 0 003.8.988 15.441 15.441 0 014.01 1.581 3.663 3.663 0 011.4 3.16 5.6 5.6 0 01-1 3.358 7.29 7.29 0 01-2.81 1.975 12.205 12.205 0 01-9.4-.79 6.06 6.06 0 01-3.01-4.939zm23.82-16.394h-4.8v5.136h-2.8v3.161h2.8V32.3a3.2 3.2 0 001.6 3.16 7.181 7.181 0 003.8.989 11.494 11.494 0 002.6-.2V32.7a3.951 3.951 0 01-1.4.2 1.783 1.783 0 01-2-1.976v-8.499h3.4v-3.16h-3.4l.2-5.333zm15.41 15.6v-1.77a5.69 5.69 0 01-2.6.79 19.377 19.377 0 00-3 .593 1.965 1.965 0 00-1 1.975c0 1.382 1 2.173 2.8 2.173a3.985 3.985 0 002.8-.987 3.275 3.275 0 001-2.766zm-6.2-5.135h-4.6a5.765 5.765 0 011.4-3.358 8.388 8.388 0 012.8-1.778 11.776 11.776 0 013.8-.593 12.1 12.1 0 015.01.79 4.026 4.026 0 012.6 3.951V32.3c0 1.975.2 3.16.6 3.753h-4.6a6.05 6.05 0 01-.4-1.58 7.614 7.614 0 01-5.61 2.173 8.094 8.094 0 01-3-.593 4.875 4.875 0 01-2.2-1.778 4.5 4.5 0 01-.8-2.766 3.829 3.829 0 01.8-2.765 5.077 5.077 0 012-1.581 5.6 5.6 0 012.6-.592c1-.2 2-.2 3.2-.4a4.777 4.777 0 002-.593 1.334 1.334 0 00.8-1.185 1.917 1.917 0 00-.8-1.778 3.413 3.413 0 00-2-.592 3.029 3.029 0 00-2.2.79 1.7 1.7 0 00-1.4 1.58zm29.02-5.136l-6.2 16.593-.8 2.37a6.122 6.122 0 01-2.4 2.963 8.588 8.588 0 01-4.01.79 11.614 11.614 0 01-2.4-.2v-3.743c.8 0 1.8.2 2.6.2a1.826 1.826 0 001.4-.593 1.653 1.653 0 00.4-1.383 1.761 1.761 0 00-.2-.987l-5.8-15.8h5l3.81 11.655 3.8-11.655 4.8-.2zm1.6 16.987l.2-23.506 7.21.2 5.4 16 5.21-16h7.41l-.21 23.506h-4.8V19.858l-5.8 16.395h-4.01l-5.6-16.394-.2 16.395h-4.81zm39.44-6.32v-1.77a5.716 5.716 0 01-2.61.79 19.508 19.508 0 00-3 .592 1.968 1.968 0 00-1 1.976c0 1.383 1 2.173 2.8 2.173a4.033 4.033 0 002.81-.987 3.274 3.274 0 001-2.765zm-6.21-5.137h-4.6a5.767 5.767 0 011.4-3.357 8.4 8.4 0 012.8-1.778 11.793 11.793 0 013.8-.592 12.052 12.052 0 015.01.79 4.024 4.024 0 012.6 3.95V32.7c0 1.975.2 3.161.6 3.753h-4.6a6.046 6.046 0 01-.4-1.581 7.6 7.6 0 01-5.61 2.174 8.125 8.125 0 01-3-.592 4.887 4.887 0 01-2.2-1.778 4.5 4.5 0 01-.8-2.766 3.829 3.829 0 01.8-2.765 5.06 5.06 0 012-1.58 5.582 5.582 0 012.6-.593c1-.2 2-.2 3.2-.4a4.83 4.83 0 002.01-.593 1.334 1.334 0 00.8-1.186 1.916 1.916 0 00-.8-1.778 3.439 3.439 0 00-2.01-.593 3.029 3.029 0 00-2.2.79c-.6.593-1.2.79-1.4 1.58zm19.82-10.271h-4.81v5.143h-2.8v3.161h2.8V32.9a3.194 3.194 0 001.6 3.16 7.244 7.244 0 003.81.988 11.539 11.539 0 002.6-.2V33.29a3.934 3.934 0 01-1.4.2 1.783 1.783 0 01-2-1.976v-8.496h3.4v-3.16h-3.4l.2-5.333zm20.81 11.259a6.371 6.371 0 00-.8-2.766 4.346 4.346 0 00-1.8-1.975 6.776 6.776 0 00-2.4-1.185 13.612 13.612 0 00-2.8-.4 8.4 8.4 0 00-4.61 1.185 6.587 6.587 0 00-3 3.161 9.206 9.206 0 00-1 4.741 11.594 11.594 0 001 4.543 9.19 9.19 0 003 3.161 8.172 8.172 0 004.41 1.186 8.623 8.623 0 005.6-1.778 7.551 7.551 0 002.6-5.135h-4.4a6.085 6.085 0 01-1.2 2.567 3.828 3.828 0 01-2.6.988 3.029 3.029 0 01-2.2-.79 7.109 7.109 0 01-1.41-1.975 9.888 9.888 0 01-.4-2.568 13.184 13.184 0 01.4-2.765 8.183 8.183 0 011.41-2.173 3.439 3.439 0 015.6 2.173l4.6-.2zm2.41 10.864l.2-23.309h4.6v8.889a5.746 5.746 0 012.2-2.173 6.571 6.571 0 012.8-.79 7.24 7.24 0 013.81.79 3.531 3.531 0 011.8 2.37 9.85 9.85 0 01.6 3.754v10.477h-4.6v-9.679a6.84 6.84 0 00-.61-3.161 2.592 2.592 0 00-2.2-.987 3.374 3.374 0 00-2.8 1.185c-.6.79-.8 1.975-.8 3.753v8.889h-5z" fill-rule="evenodd"/><path d="M6.01 0H12v14l-5.99 5.045V0zM26 19v27h-7V19l-7 6v21H6.01V29.918l-2.29 1.834L0 27.1l6.01-4.8 6.02-4.8 10.46-8.181L32.95 17.5l6.02 4.8 6.02 4.8-3.72 4.655-2.3-1.834V46H33V25zm7-19h5.97v19.045L33 14V0z" fill="#1ca0f2" fill-rule="evenodd"/></svg>